<?xml version="1.0" encoding="UTF-8" standalone="no"?>
<svg
   version="1.1"
   viewBox="0 0 485 734"
   height="734"
   width="485"
   id="svg1"
   xmlns="http://www.w3.org/2000/svg"
   xmlns:svg="http://www.w3.org/2000/svg">
  <defs
     id="defs1" />
  <path
     stroke="none"
     fill-rule="evenodd"
     fill="#f08030"
     d="m -260.15854,381.28615 c 0,281.6 0.114,396.651 0.254,255.668 0.14,-140.982 0.14,-371.382 0,-512 -0.14,-140.617003 -0.254,-25.267999 -0.254,256.332 M 182.34546,1.8001492 c 0,0.408 0.65,1.281 1.445,1.94 2.462,2.043 7.499,10.5230018 9.919,16.6990018 4.857,12.393 6.138,19.917 6.104,35.847 -0.028,13.178 -0.364,16.215 -2.766,25 -3.825,13.987 -13.685,33.463999 -23.738,46.891999 -5.725,7.648 -19.965,22.854 -47.809,51.053 -50.146002,50.787 -65.670005,69.342 -84.301005,100.759 -33.9220004,57.199 -40.79300042,118.15 -20.269,179.796 10.729,32.229 27.678,59.322 52.035,83.177 17.747003,17.383 29.945005,26.683 61.576005,46.947 25.807,16.534 40.217,27.504 55.475,42.231 18.356,17.716 30.194,32.945 42.089,54.145 5.675,10.113 12.833,26.49 16.172,37 1.224,3.85 2.444,7.675 2.712,8.5 0.268,0.825 2.191,-3 4.274,-8.5 10.599,-27.988 28.434,-56.347 51.256,-81.5 14.605,-16.096 30.861,-29.759 65.558,-55.098 36.909,-26.955 55.568,-44.995 71.784,-69.402 28.422,-42.778 38.16,-98.537 28.441,-162.845 -5.727,-37.895 -16.937,-71.797 -36.423,-110.155 -19.727,-38.834 -45.37,-76.314 -66.02,-96.5 l -5.627,-5.5 0.663,5.083 c 0.943,7.229 -1.218,22.397 -4.691,32.917 -10.267,31.102 -34.35,54.149 -67.286,64.392 -5.46,1.698 -10.084,2.93 -10.276,2.739 -0.191,-0.192 1.281,-3.225 3.272,-6.74 9.635,-17.011 18.298,-39.98 22.408,-59.418 3.101,-14.668 3.806,-38.68 1.554,-52.973 -6.406,-40.669999 -31.031,-76.180999 -71.824,-103.576999 -13.019,-8.744 -26.251,-15.5150018 -37.707,-19.2960018 -8.527,-2.815 -18,-4.71600003 -18,-3.613 m 59.911,261.9790008 c -3.422,2.746 -10.989,9.334 -16.816,14.64 -11.928,10.861 -146.019002,144 -150.321005,149.255 -2.026,2.474 -2.777,4.495 -2.784,7.5 l -0.011,4.112 85.703005,85.5 c 47.137,47.025 87.669,87.271 90.072,89.437 l 4.369,3.936 88.442,-88.436 c 63.383,-63.379 88.753,-89.375 89.536,-91.746 0.809,-2.45 0.786,-4.049 -0.09,-6.164 -1.321,-3.19 -154.006,-155.789 -166.414,-166.32 -10.293,-8.736 -12.7,-8.926 -21.686,-1.714 m -26.876,96.941 c -0.686,1.282 -1.035,26.194 -1.035,73.865 0,71.564 0.011,71.945 2.1,74.602 1.582,2.01 2.632,2.502 4.25,1.991 6.961,-2.2 82.213,-54.118 100.455,-69.307 5.857,-4.877 6.284,-5.509 6,-8.887 -0.357,-4.253 -1.399,-5.044 -44.305,-33.628 -45.6,-30.38 -61.7,-40.57 -64.095,-40.57 -1.285,0 -2.8,0.87 -3.37,1.934"
     id="path1" />
</svg>
